<svg xmlns="http://www.w3.org/2000/svg" viewBox="0 0 1440 320">
  <path fill="#0099ff" fill-opacity="1" d="M0,32L30,42.7C60,53,120,75,180,117.3C240,160,300,224,360,250.7C420,277,480,267,540,229.3C600,192,660,128,720,117.3C780,107,840,149,900,192C960,235,1020,277,1080,293.3C1140,309,1200,299,1260,277.3C1320,256,1380,224,1410,208L1440,192L1440,320L1410,320C1380,320,1320,320,1260,320C1200,320,1140,320,1080,320C1020,320,960,320,900,320C840,320,780,320,720,320C660,320,600,320,540,320C480,320,420,320,360,320C300,320,240,320,180,320C120,320,60,320,30,320L0,320Z"></path>
</svg>